<svg xmlns="http://www.w3.org/2000/svg" viewBox="0 0 96 96" role="img" aria-label="Państwa Miasta"><defs><linearGradient id="paper" x1="18" x2="78" y1="12" y2="84" gradientUnits="userSpaceOnUse"><stop stop-color="#fff7d6"/><stop offset="1" stop-color="#b8f1e4"/></linearGradient></defs><rect width="96" height="96" rx="22" fill="#245f73"/><path d="M25 14h38l14 14v54H25z" fill="url(#paper)" stroke="#173c4a" stroke-width="4" stroke-linejoin="round"/><path d="M63 14v15h14" fill="#8fd8ef" stroke="#173c4a" stroke-width="4" stroke-linejoin="round"/><path d="M34 38h31M34 51h31M34 64h23" stroke="#173c4a" stroke-width="5" stroke-linecap="round"/><circle cx="31" cy="38" r="3" fill="#e05f4f"/><circle cx="31" cy="51" r="3" fill="#e05f4f"/><circle cx="31" cy="64" r="3" fill="#e05f4f"/><path d="M62 72c8-8 15-15 15-24 0-7-5-12-12-12s-12 5-12 12c0 9 7 16 9 24Z" fill="#f6cf57" stroke="#173c4a" stroke-width="4"/><circle cx="65" cy="48" r="4" fill="#173c4a"/></svg>