<svg xmlns="http://www.w3.org/2000/svg" viewBox="0 0 96 96" role="img" aria-labelledby="title desc">
  <title id="title">Składany rysunek potwora</title>
  <desc id="desc">Kartka z trzema złożonymi częściami i zabawnym potworem.</desc>
  <defs>
    <linearGradient id="paper" x1="16" x2="80" y1="8" y2="88" gradientUnits="userSpaceOnUse">
      <stop stop-color="#fffdf7"/>
      <stop offset="1" stop-color="#f3ead4"/>
    </linearGradient>
  </defs>
  <rect x="18" y="7" width="60" height="82" rx="8" fill="url(#paper)" stroke="#2f6f68" stroke-width="4"/>
  <path d="M20 34h56M20 62h56" stroke="#2f6f68" stroke-width="3" stroke-dasharray="7 5" opacity=".45"/>
  <path d="M34 29c0-9 7-16 16-16s16 7 16 16c0 8-7 14-16 14s-16-6-16-14Z" fill="#ff9f6e"/>
  <path d="M35 45c6-8 23-8 30 0l5 16c-9 7-30 7-40 0l5-16Z" fill="#58bd82"/>
  <path d="M39 63l-7 17M57 63l8 17M45 64l-1 17M51 64l1 17" stroke="#6f8dff" stroke-width="7" stroke-linecap="round"/>
  <circle cx="44" cy="28" r="3" fill="#1f2430"/>
  <circle cx="56" cy="28" r="3" fill="#1f2430"/>
  <path d="M44 36c4 3 8 3 12 0" fill="none" stroke="#1f2430" stroke-width="3" stroke-linecap="round"/>
  <path d="M36 18l-7-8M60 18l7-8" stroke="#ff9f6e" stroke-width="5" stroke-linecap="round"/>
</svg>
