<svg xmlns="http://www.w3.org/2000/svg" viewBox="0 0 64 64" role="img" aria-labelledby="title">
  <title id="title">Settings</title>
  <rect width="64" height="64" rx="16" fill="#f1f5f9"/>
  <path fill="#475569" d="M35.8 10l2.3 6.4c1.3.4 2.5.9 3.6 1.5l6.1-2.9 6.2 6.2-2.9 6.1c.6 1.1 1.1 2.3 1.5 3.6L59 33.2v8.8l-6.4 2.3c-.4 1.3-.9 2.5-1.5 3.6l2.9 6.1-6.2 6.2-6.1-2.9c-1.1.6-2.3 1.1-3.6 1.5L35.8 65h-8.8l-2.3-6.4c-1.3-.4-2.5-.9-3.6-1.5l-6.1 2.9-6.2-6.2 2.9-6.1c-.6-1.1-1.1-2.3-1.5-3.6L4 41.8v-8.8l6.4-2.3c.4-1.3.9-2.5 1.5-3.6L9 21l6.2-6.2 6.1 2.9c1.1-.6 2.3-1.1 3.6-1.5L27.2 10h8.6Z" transform="scale(.78) translate(9 3)"/>
  <circle cx="32" cy="32" r="10" fill="#e2e8f0" stroke="#0f172a" stroke-width="4"/>
</svg>
